<?xml version="1.0" encoding="UTF-8"?>
<!DOCTYPE svg PUBLIC "-//W3C//DTD SVG 1.1//EN" "http://www.w3.org/Graphics/SVG/1.1/DTD/svg11.dtd">
<!-- Creator: CorelDRAW 2017 -->
<svg xmlns="http://www.w3.org/2000/svg" xml:space="preserve" width="1.33333in" height="0.299992in" version="1.1" style="shape-rendering:geometricPrecision; text-rendering:geometricPrecision; image-rendering:optimizeQuality; fill-rule:evenodd; clip-rule:evenodd"
viewBox="0 0 1333 300"
 xmlns:xlink="http://www.w3.org/1999/xlink">
 <defs>
  <style type="text/css">
   <![CDATA[
    .fil2 {fill:#1D3853}
    .fil1 {fill:#336699}
    .fil0 {fill:white}
    .fil3 {fill:white;fill-rule:nonzero}
   ]]>
  </style>
 </defs>
 <g id="Layer_x0020_1">
  <metadata id="CorelCorpID_0Corel-Layer"/>
  <circle class="fil0" cx="244" cy="160" r="128"/>
  <circle class="fil1" cx="243" cy="160" r="115"/>
  <path class="fil2" d="M190 76l0 137 34 24 0 9c14,9 28,19 42,28 43,-6 81,-49 88,-81l-53 -67 -13 -9 -32 -31 -65 -8 0 0z"/>
  <path class="fil3" d="M208 90l0 109 6 0c16,0 29,-5 38,-14 9,-9 13,-23 13,-40 0,-19 -4,-32 -12,-41 -8,-9 -20,-13 -37,-13l-8 0 0 0zm-18 -14l24 0c24,0 41,6 53,17 11,11 17,28 17,52 0,22 -6,39 -18,51 -12,12 -29,18 -52,18l-24 0 0 -137 0 0z"/>
  <path class="fil3" d="M242 122l0 109 6 0c16,0 29,-5 38,-14 9,-9 13,-23 13,-40 0,-19 -4,-32 -12,-41 -8,-9 -20,-13 -37,-13l-8 0 0 0zm-18 -14l24 0c24,0 41,6 53,17 11,11 17,28 17,52 0,22 -6,39 -18,51 -12,12 -29,18 -52,18l-24 0 0 -137 0 0z"/>
  <path class="fil3" d="M456 93l0 15c-3,-2 -6,-3 -9,-4 -3,-1 -7,-1 -10,-1 -6,0 -11,2 -14,4 -3,3 -5,7 -5,13 0,7 6,14 18,23 2,1 4,3 5,4 8,6 14,11 18,16 3,5 5,11 5,18 0,10 -3,19 -10,25 -7,6 -15,10 -26,10 -4,0 -9,0 -13,-1 -4,-1 -8,-2 -11,-4l1 -14c3,2 7,4 11,6 4,1 8,2 12,2 6,0 11,-2 15,-5 3,-3 5,-8 5,-14 0,-5 -1,-9 -4,-12 -2,-4 -8,-8 -18,-15 -10,-7 -16,-12 -19,-17 -3,-5 -5,-10 -5,-16 0,-10 3,-18 9,-24 6,-6 14,-9 24,-9 4,0 7,0 11,1 3,1 7,2 10,3l0 0z"/>
  <path class="fil3" d="M532 125l0 13c-3,-2 -5,-3 -7,-3 -2,-1 -5,-1 -7,-1 -8,0 -15,3 -19,8 -4,5 -6,13 -6,24 0,11 2,20 7,26 4,6 11,9 19,9 2,0 5,0 7,-1 2,-1 5,-2 8,-3l0 12c-3,1 -6,2 -9,3 -3,1 -6,1 -10,1 -12,0 -21,-4 -27,-12 -7,-8 -10,-19 -10,-34 0,-14 3,-25 10,-33 7,-8 16,-12 28,-12 3,0 6,0 8,1 3,1 6,1 9,2l0 0z"/>
  <path class="fil3" d="M548 83l14 0 0 52c3,-4 6,-7 10,-9 4,-2 8,-3 13,-3 8,0 13,2 18,8 4,5 6,12 6,21l0 62 -14 0 0 -59c0,-6 -1,-10 -3,-13 -2,-3 -6,-4 -10,-4 -6,0 -10,2 -13,6 -3,4 -5,10 -5,18l0 1 0 53 -14 0 0 -130 0 0z"/>
  <polygon class="fil3" points="624,124 638,124 655,198 673,124 689,124 707,198 724,124 738,124 715,212 699,212 680,138 663,212 647,212 "/>
  <path class="fil3" d="M813 172l-49 0c0,10 2,17 7,23 4,5 10,8 18,8 3,0 7,0 10,-1 3,-1 7,-2 10,-4l0 12c-3,2 -7,3 -10,4 -4,1 -8,1 -12,1 -12,0 -22,-4 -28,-11 -6,-8 -9,-19 -9,-34 0,-14 3,-25 9,-34 6,-8 14,-12 24,-12 9,0 17,4 22,11 6,7 8,17 8,30 0,3 0,5 0,6 0,1 0,2 0,3l0 0zm-14 -10l0 -1c0,-9 -1,-16 -4,-20 -3,-5 -7,-7 -12,-7 -6,0 -10,2 -13,7 -3,5 -5,12 -6,21l35 0z"/>
  <polygon class="fil3" points="832,124 846,124 846,212 832,212 "/>
  <path class="fil3" d="M912 125l-1 13c-3,-1 -5,-2 -8,-3 -3,-1 -5,-1 -8,-1 -4,0 -8,1 -10,3 -2,2 -3,5 -3,9 0,3 1,5 2,7 2,2 5,4 10,7 9,5 15,9 18,13 3,4 5,9 5,14 0,8 -3,14 -8,19 -5,5 -12,7 -21,7 -4,0 -8,0 -11,-1 -4,-1 -7,-2 -11,-4l1 -14c3,2 7,4 10,5 4,1 7,2 11,2 5,0 9,-1 11,-3 3,-2 4,-5 4,-10 0,-3 -1,-6 -3,-8 -2,-2 -6,-5 -13,-9l0 0c-13,-8 -20,-16 -20,-25 0,-8 2,-14 7,-18 5,-4 12,-7 20,-7 3,0 6,0 8,1 3,0 6,1 9,2l0 0z"/>
  <path class="fil3" d="M976 125l-1 13c-3,-1 -5,-2 -8,-3 -3,-1 -5,-1 -8,-1 -4,0 -8,1 -10,3 -2,2 -3,5 -3,9 0,3 1,5 2,7 2,2 5,4 10,7 9,5 15,9 18,13 3,4 5,9 5,14 0,8 -3,14 -8,19 -5,5 -12,7 -21,7 -4,0 -8,0 -11,-1 -4,-1 -7,-2 -11,-4l1 -14c3,2 7,4 10,5 4,1 7,2 11,2 5,0 9,-1 11,-3 3,-2 4,-5 4,-10 0,-3 -1,-6 -3,-8 -2,-2 -6,-5 -13,-9l0 0c-13,-8 -20,-16 -20,-25 0,-8 2,-14 7,-18 5,-4 12,-7 20,-7 3,0 6,0 8,1 3,0 6,1 9,2l0 0z"/>
  <path class="fil3" d="M1058 172l-49 0c0,10 2,17 7,23 4,5 10,8 18,8 3,0 7,0 10,-1 3,-1 7,-2 10,-4l0 12c-3,2 -7,3 -10,4 -4,1 -8,1 -12,1 -12,0 -22,-4 -28,-11 -6,-8 -9,-19 -9,-34 0,-14 3,-25 9,-34 6,-8 14,-12 24,-12 9,0 17,4 22,11 6,7 8,17 8,30 0,3 0,5 0,6 0,1 0,2 0,3l0 0zm-14 -10l0 -1c0,-9 -1,-16 -4,-20 -3,-5 -7,-7 -12,-7 -6,0 -10,2 -13,7 -3,5 -5,12 -6,21l35 0z"/>
  <path class="fil3" d="M1115 122l0 14c-1,0 -1,0 -2,0 -1,0 -1,0 -2,0 -6,0 -11,2 -15,6 -3,4 -5,11 -5,19l0 50 -14 0 0 -66c0,-3 0,-7 0,-10 0,-4 0,-8 -1,-12l13 0c0,4 0,7 1,9 0,2 0,4 0,6 2,-5 5,-10 9,-12 4,-3 8,-4 14,-4l2 0 0 0z"/>
  <rect class="fil0" x="575" y="149" width="8" height="83"/>
  <circle class="fil0" cx="840" cy="102" r="9"/>
 </g>
</svg>
