<?xml version="1.0" encoding="UTF-8"?>
<!DOCTYPE svg PUBLIC "-//W3C//DTD SVG 1.1//EN" "http://www.w3.org/Graphics/SVG/1.1/DTD/svg11.dtd">
<!-- Creator: CorelDRAW 2017 -->
<svg xmlns="http://www.w3.org/2000/svg" xml:space="preserve" width="8.5in" height="11in" version="1.1" style="shape-rendering:geometricPrecision; text-rendering:geometricPrecision; image-rendering:optimizeQuality; fill-rule:evenodd; clip-rule:evenodd"
viewBox="0 0 8500 11000"
 xmlns:xlink="http://www.w3.org/1999/xlink">
 <defs>
  <style type="text/css">
   <![CDATA[
    .fil4 {fill:none}
    .fil2 {fill:#1D3853}
    .fil1 {fill:#336699}
    .fil0 {fill:white}
    .fil3 {fill:white;fill-rule:nonzero}
   ]]>
  </style>
 </defs>
 <g id="Layer_x0020_1">
  <metadata id="CorelCorpID_0Corel-Layer"/>
  <ellipse class="fil0" cx="2208.97" cy="1390.72" rx="487.73" ry="487.74"/>
  <ellipse class="fil1" cx="2206.8" cy="1388.92" rx="440.76" ry="440.77"/>
  <path class="fil2" d="M2004.25 1068.47l-0.51 522.54 129.81 89.87 0 33.41c53.25,35.64 106.51,71.28 159.76,106.91 165.05,-23.95 309.63,-185.63 337.38,-311.06l-204.14 -254.64 -50.69 -35.95 -122.39 -119.82 -249.21 -31.26z"/>
  <path class="fil3" d="M2071.17 1122.86l0 415.06 24.79 0c62.8,0 110.81,-17.86 143.78,-53.46 32.96,-35.59 49.44,-87.04 49.44,-154.33 0,-71.19 -15.19,-123.51 -45.68,-156.97 -30.37,-33.58 -77.99,-50.31 -142.61,-50.31l-29.72 0zm-66.96 -54.33l90.19 0c90.45,0 157.28,21.38 200.63,64.15 43.34,42.76 65.01,108.54 65.01,197.47 0,84.4 -22.97,149.04 -68.78,194.32 -45.81,45.16 -111.47,67.8 -196.86,67.8l-90.19 0 0 -523.73z"/>
  <path class="fil3" d="M2201.49 1244.89l0 415.06 24.79 0c62.8,0 110.81,-17.86 143.78,-53.46 32.96,-35.59 49.44,-87.04 49.44,-154.33 0,-71.19 -15.18,-123.51 -45.68,-156.97 -30.37,-33.58 -77.99,-50.31 -142.61,-50.31l-29.72 0zm-66.96 -54.33l90.19 0c90.44,0 157.28,21.38 200.62,64.15 43.34,42.76 65.01,108.54 65.01,197.47 0,84.4 -22.97,149.04 -68.78,194.32 -45.8,45.16 -111.47,67.8 -196.85,67.8l-90.19 0 0 -523.73z"/>
  <path class="fil3" d="M3020.87 1135.86l-1.33 55.66c-11.18,-7.3 -23.24,-12.94 -35.97,-16.71 -12.72,-3.76 -25.89,-5.65 -39.5,-5.65 -23.13,0 -41.06,5.76 -53.67,17.15 -12.61,11.51 -18.92,27.56 -18.92,48.36 0,26.33 23.02,55.21 68.94,86.53 8.41,5.64 14.83,10.07 19.37,13.39 32.42,22.24 54.89,42.93 67.17,62.08 12.28,19.14 18.48,41.61 18.48,67.39 0,39.51 -12.62,71.49 -37.74,95.72 -25.23,24.23 -58.2,36.3 -99.04,36.3 -16.81,0 -33.08,-1.88 -48.69,-5.54 -15.72,-3.65 -30.21,-9.07 -43.6,-16.26l5.53 -55.22c13.17,9.51 27.33,16.82 42.6,21.8 15.16,4.98 30.76,7.41 46.7,7.41 23.79,0 42.27,-6.41 55.44,-19.14 13.17,-12.72 19.69,-30.43 19.69,-53.22 0,-18.37 -4.65,-34.19 -13.94,-47.58 -9.3,-13.5 -31.98,-32.31 -68.28,-56.77 -37.18,-25.33 -61.63,-46.58 -73.37,-64.07 -11.84,-17.37 -17.7,-37.4 -17.7,-60.09 0,-37.18 11.73,-67.28 35.3,-90.52 23.57,-23.23 54.33,-34.85 92.07,-34.85 14.06,0 27.67,1.1 40.94,3.43 13.17,2.21 26.34,5.75 39.51,10.4z"/>
  <path class="fil3" d="M3311.44 1257.58l-1.33 50.57c-9.74,-5.75 -18.92,-9.96 -27.66,-12.39 -8.74,-2.55 -18.04,-3.77 -28,-3.77 -31.76,0 -55.66,10.29 -71.93,30.99 -16.15,20.58 -24.23,51.01 -24.23,91.18 0,43.81 8.41,77.35 25.23,100.58 16.82,23.24 40.94,34.86 72.26,34.86 9.52,0 18.81,-1.11 28.11,-3.43 9.3,-2.21 19.37,-5.98 30.1,-11.17l1.67 47.14c-11.4,4.53 -23.24,7.85 -35.52,10.07 -12.17,2.1 -24.57,3.21 -37.07,3.21 -44.48,0 -79.45,-15.49 -104.9,-46.59 -25.57,-30.98 -38.29,-74.03 -38.29,-129.13 0,-53.89 13.06,-96.38 39.17,-127.48 26.11,-31.09 61.85,-46.7 106.89,-46.7 10.62,0 21.36,1 32.09,2.88 10.85,1.99 22.02,4.98 33.42,9.18z"/>
  <path class="fil3" d="M3370.09 1094.14l55.1 0 0 198.52c10.63,-15.93 22.91,-27.77 36.96,-35.52 14.06,-7.75 30.1,-11.62 48.25,-11.62 28.77,0 51.23,9.52 67.61,28.66 16.27,19.15 24.45,45.81 24.45,80.12l0 235.14 -55.11 0 0 -227.06c0,-22.91 -4.31,-40.06 -12.94,-51.35 -8.63,-11.39 -21.8,-17.04 -39.5,-17.04 -21.47,0 -38.4,8.19 -50.9,24.68 -12.5,16.38 -18.81,38.84 -18.81,67.39l0 1.99 0 201.39 -55.1 0 0 -495.3z"/>
  <polygon class="fil3" points="3659.46,1252.16 3715.89,1252.16 3780.4,1535 3847.46,1252.16 3909.65,1252.16 3978.03,1535 4043.21,1252.16 4098.32,1252.16 4007.91,1589.44 3946.94,1589.44 3876.56,1307.27 3809.51,1589.44 3747.65,1589.44 "/>
  <path class="fil3" d="M4383.48 1435.41l-186.23 0c1.11,37.85 9.52,66.61 25.45,86.2 15.82,19.59 38.62,29.32 68.17,29.32 12.5,0 24.9,-1.77 37.29,-5.31 12.28,-3.65 25,-9.07 38.18,-16.49l1.33 46.48c-12.17,6.75 -25.23,11.73 -39.39,14.94 -14.17,3.21 -29.55,4.87 -46.15,4.87 -47.14,0 -82.55,-14.5 -106.34,-43.6 -23.79,-29.1 -35.63,-72.48 -35.63,-130.24 0,-53.78 11.51,-96.6 34.52,-128.36 23.02,-31.76 53.89,-47.69 92.84,-47.69 35.63,0 64.07,14.16 85.2,42.49 21.13,28.22 31.76,66.28 31.76,113.98 0,10.18 0,17.48 -0.11,21.8 -0.11,4.31 -0.44,8.19 -0.89,11.62zm-52.78 -39.17l0 -2.54c0,-33.75 -5.42,-59.43 -16.16,-77.13 -10.84,-17.7 -26.44,-26.56 -47.02,-26.56 -21.36,0 -37.96,8.85 -49.69,26.44 -11.84,17.6 -18.92,44.15 -21.24,79.78l134.11 0z"/>
  <polygon class="fil3" points="4456.06,1252.16 4510.51,1252.16 4510.51,1589.44 4456.06,1589.44 "/>
  <path class="fil3" d="M4759.7 1257.58l-4.87 49.35c-9.96,-5.2 -20.14,-9.07 -30.65,-11.73 -10.4,-2.55 -20.69,-3.87 -30.87,-3.87 -16.49,0 -29.1,3.87 -37.95,11.51 -8.85,7.63 -13.28,18.7 -13.28,33.2 0,11.28 2.99,20.69 9.07,28.43 6.09,7.64 19.25,16.71 39.5,27.33 35.08,18.37 58.54,35.19 70.37,50.57 11.84,15.27 17.81,33.75 17.81,55.32 0,29.77 -10.18,53.78 -30.65,72.15 -20.36,18.37 -47.58,27.55 -81.55,27.55 -14.61,0 -29.11,-1.55 -43.27,-4.65 -14.16,-3.1 -27.99,-7.85 -41.6,-14.05l4.54 -51.68c12.06,8.41 24.9,14.72 38.29,18.93 13.39,4.2 27.22,6.3 41.5,6.3 18.59,0 32.98,-4.31 43.05,-12.94 10.18,-8.63 15.27,-20.91 15.27,-36.63 0,-11.29 -3.32,-21.03 -10.07,-29.22 -6.64,-8.19 -23.24,-19.81 -49.57,-34.63l-1.33 -0.67c-51.46,-28.77 -77.13,-60.86 -77.13,-96.38 0,-29.33 9.41,-52.67 28.33,-69.83 18.92,-17.15 44.7,-25.78 77.35,-25.78 10.4,0 21.13,0.89 32.2,2.77 11.18,1.88 23.02,4.64 35.52,8.63z"/>
  <path class="fil3" d="M5007.35 1257.58l-4.87 49.35c-9.96,-5.2 -20.14,-9.07 -30.65,-11.73 -10.41,-2.55 -20.7,-3.87 -30.87,-3.87 -16.49,0 -29.11,3.87 -37.96,11.51 -8.85,7.63 -13.28,18.7 -13.28,33.2 0,11.28 2.99,20.69 9.07,28.43 6.09,7.64 19.25,16.71 39.5,27.33 35.08,18.37 58.54,35.19 70.37,50.57 11.84,15.27 17.81,33.75 17.81,55.32 0,29.77 -10.18,53.78 -30.65,72.15 -20.36,18.37 -47.59,27.55 -81.56,27.55 -14.61,0 -29.11,-1.55 -43.27,-4.65 -14.16,-3.1 -28,-7.85 -41.61,-14.05l4.54 -51.68c12.06,8.41 24.9,14.72 38.28,18.93 13.39,4.2 27.22,6.3 41.5,6.3 18.59,0 32.98,-4.31 43.05,-12.94 10.18,-8.63 15.27,-20.91 15.27,-36.63 0,-11.29 -3.32,-21.03 -10.07,-29.22 -6.63,-8.19 -23.24,-19.81 -49.57,-34.63l-1.33 -0.67c-51.46,-28.77 -77.13,-60.86 -77.13,-96.38 0,-29.33 9.4,-52.67 28.33,-69.83 18.92,-17.15 44.7,-25.78 77.35,-25.78 10.4,0 21.13,0.89 32.2,2.77 11.17,1.88 23.01,4.64 35.52,8.63z"/>
  <path class="fil3" d="M5320.95 1435.41l-186.23 0c1.11,37.85 9.52,66.61 25.45,86.2 15.82,19.59 38.62,29.32 68.17,29.32 12.5,0 24.9,-1.77 37.29,-5.31 12.28,-3.65 25,-9.07 38.18,-16.49l1.33 46.48c-12.17,6.75 -25.23,11.73 -39.39,14.94 -14.17,3.21 -29.55,4.87 -46.15,4.87 -47.14,0 -82.55,-14.5 -106.34,-43.6 -23.79,-29.1 -35.63,-72.48 -35.63,-130.24 0,-53.78 11.51,-96.6 34.52,-128.36 23.02,-31.76 53.89,-47.69 92.84,-47.69 35.63,0 64.07,14.16 85.2,42.49 21.13,28.22 31.76,66.28 31.76,113.98 0,10.18 0,17.48 -0.11,21.8 -0.11,4.31 -0.44,8.19 -0.89,11.62zm-52.78 -39.17l0 -2.54c0,-33.75 -5.42,-59.43 -16.16,-77.13 -10.84,-17.7 -26.44,-26.56 -47.02,-26.56 -21.36,0 -37.96,8.85 -49.69,26.44 -11.84,17.6 -18.92,44.15 -21.24,79.78l134.11 0z"/>
  <path class="fil3" d="M5538.28 1246.19l-0.33 55.11c-2.55,-0.22 -4.98,-0.44 -7.08,-0.56 -2.21,-0.11 -4.32,-0.11 -6.53,-0.11 -24.12,0 -42.71,8.3 -55.66,24.79 -12.95,16.6 -19.36,40.39 -19.36,71.48l0 192.54 -54.44 0 0 -252.85c0,-12.5 -0.22,-25.67 -0.78,-39.5 -0.55,-13.72 -1.44,-28.66 -2.43,-44.93l50.57 0c1,15.39 1.77,27 2.11,34.97 0.33,7.86 0.44,15.27 0.44,22.24 8.63,-20.92 20.25,-36.74 34.75,-47.25 14.6,-10.63 32.09,-15.93 52.56,-15.93l6.2 0z"/>
  <rect class="fil0" x="3473.14" y="1349.45" width="30.16" height="315.42"/>
  <circle class="fil0" cx="4486.01" cy="1168.25" r="32.64"/>
  <rect class="fil4" x="1608.89" y="729.76" width="4079.49" height="1267.73"/>
 </g>
</svg>
