<?xml version="1.0" encoding="UTF-8"?>
<!DOCTYPE svg PUBLIC "-//W3C//DTD SVG 1.1//EN" "http://www.w3.org/Graphics/SVG/1.1/DTD/svg11.dtd">
<!-- Creator: CorelDRAW 2017 -->
<svg xmlns="http://www.w3.org/2000/svg" xml:space="preserve" width="4.99999in" height="1.33333in" version="1.1" style="shape-rendering:geometricPrecision; text-rendering:geometricPrecision; image-rendering:optimizeQuality; fill-rule:evenodd; clip-rule:evenodd"
viewBox="0 0 5000 1333"
 xmlns:xlink="http://www.w3.org/1999/xlink">
 <defs>
  <style type="text/css">
   <![CDATA[
    .fil2 {fill:#1D3853}
    .fil1 {fill:#336699}
    .fil0 {fill:white}
    .fil5 {fill:white}
    .fil3 {fill:white;fill-rule:nonzero}
    .fil4 {fill:white;fill-rule:nonzero}
   ]]>
  </style>
 </defs>
 <g id="Layer_x0020_1">
  <metadata id="CorelCorpID_0Corel-Layer"/>
  <circle class="fil0" cx="515" cy="655" r="472"/>
  <circle class="fil1" cx="513" cy="654" r="427"/>
  <path class="fil2" d="M317 343l0 506 126 87 0 32c52,35 103,69 155,104 160,-23 300,-180 327,-301l-198 -247 -49 -35 -119 -116 -241 -30 0 0z"/>
  <path class="fil3" d="M382 396l0 402 24 0c61,0 107,-17 139,-52 32,-34 48,-84 48,-149 0,-69 -15,-120 -44,-152 -29,-33 -76,-49 -138,-49l-29 0 0 0zm-65 -53l87 0c88,0 152,21 194,62 42,41 63,105 63,191 0,82 -22,144 -67,188 -44,44 -108,66 -191,66l-87 0 0 -507 0 0z"/>
  <path class="fil3" d="M508 514l0 402 24 0c61,0 107,-17 139,-52 32,-34 48,-84 48,-149 0,-69 -15,-120 -44,-152 -29,-33 -76,-49 -138,-49l-29 0 0 0zm-65 -53l87 0c88,0 152,21 194,62 42,41 63,105 63,191 0,82 -22,144 -67,188 -44,44 -108,66 -191,66l-87 0 0 -507 0 0z"/>
  <path class="fil4" d="M1360 323l-2 80c-16,-10 -33,-18 -51,-24 -18,-5 -37,-8 -56,-8 -33,0 -59,8 -77,25 -18,16 -27,39 -27,69 0,38 33,79 98,124 12,8 21,14 28,19 46,32 78,61 96,89 18,27 26,59 26,96 0,56 -18,102 -54,137 -36,35 -83,52 -141,52 -24,0 -47,-3 -70,-8 -22,-5 -43,-13 -62,-23l8 -79c19,14 39,24 61,31 22,7 44,11 67,11 34,0 60,-9 79,-27 19,-18 28,-43 28,-76 0,-26 -7,-49 -20,-68 -13,-19 -46,-46 -98,-81 -53,-36 -88,-67 -105,-92 -17,-25 -25,-53 -25,-86 0,-53 17,-96 50,-129 34,-33 78,-50 132,-50 20,0 40,2 58,5 19,3 38,8 56,15l0 0z"/>
  <path class="fil4" d="M1775 497l-2 72c-14,-8 -27,-14 -40,-18 -12,-4 -26,-5 -40,-5 -45,0 -80,15 -103,44 -23,29 -35,73 -35,130 0,63 12,110 36,144 24,33 58,50 103,50 14,0 27,-2 40,-5 13,-3 28,-9 43,-16l2 67c-16,6 -33,11 -51,14 -17,3 -35,5 -53,5 -64,0 -113,-22 -150,-67 -37,-44 -55,-106 -55,-184 0,-77 19,-138 56,-182 37,-44 88,-67 153,-67 15,0 31,1 46,4 15,3 31,7 48,13l0 0z"/>
  <path class="fil4" d="M1859 263l79 0 0 284c15,-23 33,-40 53,-51 20,-11 43,-17 69,-17 41,0 73,14 97,41 23,27 35,65 35,114l0 336 -79 0 0 -324c0,-33 -6,-57 -18,-73 -12,-16 -31,-24 -56,-24 -31,0 -55,12 -73,35 -18,23 -27,55 -27,96l0 3 0 288 -79 0 0 -707 0 0z"/>
  <polygon class="fil4" points="2272,489 2353,489 2445,893 2541,489 2629,489 2727,893 2820,489 2899,489 2770,971 2683,971 2582,568 2486,971 2398,971 "/>
  <path class="fil4" d="M3306 751l-266 0c2,54 14,95 36,123 23,28 55,42 97,42 18,0 36,-3 53,-8 18,-5 36,-13 55,-24l2 66c-17,10 -36,17 -56,21 -20,5 -42,7 -66,7 -67,0 -118,-21 -152,-62 -34,-42 -51,-104 -51,-186 0,-77 16,-138 49,-183 33,-45 77,-68 133,-68 51,0 92,20 122,61 30,40 45,95 45,163 0,15 0,25 0,31 0,6 -1,12 -1,17l0 0zm-75 -56l0 -4c0,-48 -8,-85 -23,-110 -15,-25 -38,-38 -67,-38 -31,0 -54,13 -71,38 -17,25 -27,63 -30,114l192 0z"/>
  <polygon class="fil4" points="3410,489 3488,489 3488,971 3410,971 "/>
  <path class="fil4" d="M3844 497l-7 70c-14,-7 -29,-13 -44,-17 -15,-4 -30,-6 -44,-6 -24,0 -42,6 -54,16 -13,11 -19,27 -19,47 0,16 4,30 13,41 9,11 28,24 56,39 50,26 84,50 101,72 17,22 25,48 25,79 0,43 -15,77 -44,103 -29,26 -68,39 -116,39 -21,0 -42,-2 -62,-7 -20,-4 -40,-11 -59,-20l6 -74c17,12 36,21 55,27 19,6 39,9 59,9 27,0 47,-6 61,-18 15,-12 22,-30 22,-52 0,-16 -5,-30 -14,-42 -9,-12 -33,-28 -71,-49l-2 -1c-74,-41 -110,-87 -110,-138 0,-42 13,-75 40,-100 27,-24 64,-37 110,-37 15,0 30,1 46,4 16,3 33,7 51,12l0 0z"/>
  <path class="fil4" d="M4197 497l-7 70c-14,-7 -29,-13 -44,-17 -15,-4 -30,-6 -44,-6 -24,0 -42,6 -54,16 -13,11 -19,27 -19,47 0,16 4,30 13,41 9,11 28,24 56,39 50,26 84,50 101,72 17,22 25,48 25,79 0,43 -15,77 -44,103 -29,26 -68,39 -116,39 -21,0 -42,-2 -62,-7 -20,-4 -40,-11 -59,-20l6 -74c17,12 36,21 55,27 19,6 39,9 59,9 27,0 47,-6 61,-18 15,-12 22,-30 22,-52 0,-16 -5,-30 -14,-42 -9,-12 -33,-28 -71,-49l-2 -1c-74,-41 -110,-87 -110,-138 0,-42 13,-75 40,-100 27,-24 64,-37 110,-37 15,0 30,1 46,4 16,3 33,7 51,12l0 0z"/>
  <path class="fil4" d="M4645 751l-266 0c2,54 14,95 36,123 23,28 55,42 97,42 18,0 36,-3 53,-8 18,-5 36,-13 55,-24l2 66c-17,10 -36,17 -56,21 -20,5 -42,7 -66,7 -67,0 -118,-21 -152,-62 -34,-42 -51,-104 -51,-186 0,-77 16,-138 49,-183 33,-45 77,-68 133,-68 51,0 92,20 122,61 30,40 45,95 45,163 0,15 0,25 0,31 0,6 -1,12 -1,17l0 0zm-75 -56l0 -4c0,-48 -8,-85 -23,-110 -15,-25 -38,-38 -67,-38 -31,0 -54,13 -71,38 -17,25 -27,63 -30,114l192 0z"/>
  <path class="fil4" d="M4956 481l0 79c-4,0 -7,-1 -10,-1 -3,0 -6,0 -9,0 -34,0 -61,12 -80,35 -18,24 -28,58 -28,102l0 275 -78 0 0 -361c0,-18 0,-37 -1,-56 -1,-20 -2,-41 -3,-64l72 0c1,22 3,39 3,50 0,11 1,22 1,32 12,-30 29,-52 50,-67 21,-15 46,-23 75,-23l9 0 0 0z"/>
  <rect class="fil5" x="2006" y="628" width="43" height="451"/>
  <circle class="fil5" cx="3453" cy="369" r="47"/>
 </g>
</svg>
